<svg width="102" height="96" viewBox="0 0 102 96" fill="none" xmlns="http://www.w3.org/2000/svg">
<rect x="1" y="1" width="100" height="94" rx="10" fill="#F29D16" stroke="#949494"/>
<path d="M74.8438 43.8438C76.1562 43.8438 77.2344 44.2656 78.0781 45.1094C78.9219 45.8594 79.3438 46.9375 79.3438 48.3438C79.3438 49.6562 78.9219 50.7344 78.0781 51.5781C77.2344 52.3281 76.1562 52.7031 74.8438 52.7031H56V71.5469C56 72.8594 55.5781 73.9375 54.7344 74.7812C53.8906 75.625 52.8125 76.0469 51.5 76.0469C50.1875 76.0469 49.1094 75.625 48.2656 74.7812C47.4219 73.9375 47 72.8594 47 71.5469V52.7031H28.1562C26.8438 52.7031 25.7656 52.2812 24.9219 51.4375C24.1719 50.5938 23.7969 49.5625 23.7969 48.3438C23.7969 47.0312 24.1719 45.9531 24.9219 45.1094C25.7656 44.2656 26.8438 43.8438 28.1562 43.8438H47V24.8594C47 23.5469 47.4219 22.4688 48.2656 21.625C49.1094 20.7812 50.1875 20.3594 51.5 20.3594C52.8125 20.3594 53.8906 20.7812 54.7344 21.625C55.5781 22.4688 56 23.5469 56 24.8594V43.8438H74.8438Z" fill="white"/>
</svg>
